<svg id="Layer_1" data-name="Layer 1" xmlns="http://www.w3.org/2000/svg" viewBox="0 0 382.55 164.85"><defs><style>.cls-1{fill:#007ec3;}.cls-2{fill:#f39200;}</style></defs><title>PadrãoLogoSolisluna</title><path class="cls-1" d="M206.52,90.16c-1-.52-2.74-1.3-3.56-1.78s-1.61-1-1.61-1.95.91-1.74,2.22-1.74a7.55,7.55,0,0,1,3,.7c1.52.13,2.05-1.57,2-2.7a7.91,7.91,0,0,0-4.86-1.52h0c-3.73,0-7.08,2.22-7.08,6.08a5.53,5.53,0,0,0,3,5c1.09.6,2.22,1.13,3.31,1.73,1.26.65,1.69,1.22,1.69,2,0,1.09-.91,1.83-2.48,1.83a10,10,0,0,1-4.86-1.57,3.36,3.36,0,0,0-1.13,2.35,1.91,1.91,0,0,0,1,1.56,9.35,9.35,0,0,0,4.69,1.22c4,0,7.77-2.09,7.77-6.39a5.25,5.25,0,0,0-3-4.78"/><path class="cls-1" d="M222.33,81.17h-.05c-5.82,0-10,4.35-10,10.25,0,6.17,4,9.91,9.6,9.91,6.08,0,10-4.26,10-10.34,0-5.39-3.3-9.82-9.55-9.82m0,16.94c-2.48,0-4.56-2.3-4.56-7.25,0-3.74,1.43-6.47,4.08-6.47h0c3.17,0,4.48,3.38,4.48,7.08,0,4-1.35,6.64-4,6.64"/><path class="cls-1" d="M241.31,74.18c0-2.61-.18-2.82-.83-2.82a18.62,18.62,0,0,0-4.6.78,45.9,45.9,0,0,1,.17,4.6v23.85c0,.43.17.56.61.56a41.25,41.25,0,0,0,4.82-.34c-.09-1.26-.17-3.61-.17-5.74Z"/><path class="cls-1" d="M251.21,81.43a24.47,24.47,0,0,0-4.65.53,47.8,47.8,0,0,1,.17,4.86v7.43c0,2.52-.08,5-.13,6.82a33.58,33.58,0,0,0,4.13-.18c1-.13,1.26-.34,1.26-1.13V84.17c0-2.52-.18-2.74-.78-2.74"/><path class="cls-1" d="M249.47,72.05h0a2.89,2.89,0,0,0-2.87,3,2.62,2.62,0,0,0,2.74,2.82,2.82,2.82,0,0,0,2.82-3,2.61,2.61,0,0,0-2.65-2.83"/><path class="cls-1" d="M266.1,90.16c-1-.52-2.73-1.3-3.56-1.78s-1.6-1-1.6-1.95.91-1.74,2.21-1.74a7.64,7.64,0,0,1,3,.7c1.52.13,2-1.57,2-2.7a8,8,0,0,0-4.87-1.52h0c-3.74,0-7.08,2.22-7.08,6.08a5.53,5.53,0,0,0,3,5c1.08.6,2.21,1.13,3.3,1.73,1.26.65,1.69,1.22,1.69,2,0,1.09-.91,1.83-2.47,1.83a10,10,0,0,1-4.87-1.57,3.4,3.4,0,0,0-1.13,2.35,1.91,1.91,0,0,0,1,1.56,9.38,9.38,0,0,0,4.69,1.22c3.95,0,7.77-2.09,7.77-6.39a5.23,5.23,0,0,0-3-4.78"/><path class="cls-1" d="M277.92,74.18c0-2.61-.18-2.82-.83-2.82a18.54,18.54,0,0,0-4.6.78,45.9,45.9,0,0,1,.17,4.6v23.85c0,.43.17.56.61.56a41.25,41.25,0,0,0,4.82-.34c-.09-1.26-.17-3.61-.17-5.74Z"/><path class="cls-1" d="M300.67,95.9V89.25c0-3.78.13-6.9.13-7.82a35.23,35.23,0,0,0-4.47.31c-.78.17-.91.43-.91,1.69V95.94a4.85,4.85,0,0,1-3.26,1.35c-1.56,0-3.56-.65-3.56-4V84.17c0-2.52-.17-2.74-.83-2.74a25,25,0,0,0-4.6.53,47.19,47.19,0,0,1,.17,4.86V94c0,4.25,2,7.34,6.61,7.34a7.2,7.2,0,0,0,2.78-.61,14.63,14.63,0,0,0,3.3-2.17,3.45,3.45,0,0,0,3.78,2.78c1.13,0,2.43-1.48,2.6-2.78v-.26c-1.17-.22-1.74-.65-1.74-2.39"/><path class="cls-1" d="M324.08,89.12c0-3.39-.95-8-6.47-8-2.17,0-4.26,1.35-6,2.91-.26-1.34-.91-2.91-2.56-2.91a4,4,0,0,0-3.26,2.22v.3c.66.39.83,1,.83,2.35v7.12c0,3,0,5.6-.13,7.91a30.11,30.11,0,0,0,4.39-.26c.86-.09,1-.31,1-1.09v-13a5.47,5.47,0,0,1,3.74-1.6c1.91,0,3.26,1.43,3.26,4v11.16c0,.57.21.83.87.83a44.94,44.94,0,0,0,4.56-.35c-.13-1.48-.18-3.87-.18-6.13Z"/><path class="cls-1" d="M344.8,97.59c-1,0-1.56-.61-1.56-1.17,0-2.83.17-6.13.17-7.91,0-4.73-3.17-7.34-7.08-7.34A14.61,14.61,0,0,0,328.47,84c0,1.3.61,2.86,2.43,2.34a8.46,8.46,0,0,1,4-1.26,3.21,3.21,0,0,1,3.43,3.3v.74c-.52.13-1.47.26-2.26.44-3.08.69-8.29,1.91-8.29,6.38a5.34,5.34,0,0,0,5.43,5.39,7.37,7.37,0,0,0,5.12-2.44,3.52,3.52,0,0,0,3.52,2.44c2.48,0,3.69-1.35,3.65-3.65V97.5a3.74,3.74,0,0,1-.74.09M338.29,95a2.23,2.23,0,0,1-.35,1.47,3.17,3.17,0,0,1-2.52,1.13,2.37,2.37,0,0,1-2.56-2.39v0c0-1.43,1.65-2.82,5.43-3.26Z"/><path class="cls-1" d="M183.61,98.26a30.77,30.77,0,0,0,1.39-9v-.1a31.36,31.36,0,0,0-.54-6.13,27.73,27.73,0,0,0-12.75-18.28,42.41,42.41,0,0,0-22.28-6.17,48.48,48.48,0,0,0-9.44.86l-.21.05h0a1.67,1.67,0,0,0-.86.67,1.63,1.63,0,0,0,.5,2.26c5.64,3.62,9.44,7.72,10.69,11.53a9.17,9.17,0,0,1,.42,2.11,6.45,6.45,0,0,1,0,1.32c-2.32,0-4.67.12-7,.24-3.72.18-7.5.47-11.24.86a2.2,2.2,0,0,0-1.76-.6l-.18,0c-2.69.27-5.73.59-8,1l-.13,0A2.21,2.21,0,0,0,120.65,80l-2.25.36a1.44,1.44,0,1,0,.47,2.84h0l2.3-.37a2.18,2.18,0,0,0,1.77.47l.14,0c2.08-.37,5-.68,7.65-1l.23,0a2.19,2.19,0,0,0,1.61-1c3.71-.38,7.43-.67,11.08-.85,4.37-.22,8.75-.29,13-.22a2.19,2.19,0,0,0,1.67.81l3,.1,3,.15a2.18,2.18,0,0,0,1.72-.68l2.17.16a1.44,1.44,0,1,0,.22-2.87c-.74-.06-1.47-.12-2.21-.16a2.24,2.24,0,0,0-1.66-.89l-3.06-.15-3.07-.1a2.24,2.24,0,0,0-1.72.75c-1,0-1.95,0-2.93,0a9.77,9.77,0,0,0,0-1.53,12.05,12.05,0,0,0-.58-2.89c-1.2-3.67-4.18-7.42-8.63-10.88a43.19,43.19,0,0,1,4.82-.22,38.93,38.93,0,0,1,20.53,5.66,24.5,24.5,0,0,1,11.3,16.14,28.1,28.1,0,0,1,.5,5.49v.09a27.57,27.57,0,0,1-1.25,8,26.09,26.09,0,0,1-3.3,6.75c-7.83,11.45-23.87,16.23-36.27,16.9a1.64,1.64,0,0,0,.09,3.27h.08c13.19-.71,30.3-5.9,38.8-18.32a29.3,29.3,0,0,0,3.73-7.62"/><path class="cls-1" d="M142.28,103a73.88,73.88,0,0,1-15.23-.14,1.37,1.37,0,0,0-.29,2.72,76.34,76.34,0,0,0,15.77.15,75.29,75.29,0,0,0,15.57-3.18,1.37,1.37,0,0,0-.82-2.62,74.66,74.66,0,0,1-9.44,2.32,5.81,5.81,0,0,0-.34-5c-1.07-1.8-3.2-3.13-6.29-4.46a3.69,3.69,0,0,1-1.43-1,.9.9,0,0,1-.22-.49.74.74,0,0,1,.22-.45,3.85,3.85,0,0,1,1.51-1,27.25,27.25,0,0,0,7.77-4.66c.36-.33.7-.67,1-1s.63-.72.9-1.07v0h0a1.35,1.35,0,0,0-.3-1.9,1.37,1.37,0,0,0-1.9.28h0c-.23.3-.47.59-.72.86a11.86,11.86,0,0,1-.87.86,24.49,24.49,0,0,1-7,4.16,6.55,6.55,0,0,0-2.56,1.76,3.36,3.36,0,0,0-.85,2.23,3.51,3.51,0,0,0,.83,2.18,6.46,6.46,0,0,0,2.48,1.75c2.57,1.11,4.3,2.12,5,3.32.58,1,.46,2.28-.45,4.14q-1.2.15-2.4.27"/><path class="cls-1" d="M142.74,112.52a1.36,1.36,0,0,0,.21-.34,41.3,41.3,0,0,0,8.28-1.6,1.37,1.37,0,0,0-.79-2.63A38.05,38.05,0,0,1,139,109.6c-.69,0-1.43,0-2.2-.11s-1.49-.13-2.2-.22h0a1.37,1.37,0,1,0-.34,2.71h0c.81.11,1.6.2,2.36.25s1.53.09,2.37.1h.17a33.87,33.87,0,0,1-5,3.83,81.84,81.84,0,0,1-9.18,4.89,1.37,1.37,0,0,0,1.16,2.48,85,85,0,0,0,9.49-5.06,33.16,33.16,0,0,0,7.2-6"/><path class="cls-1" d="M191.53,121.82l-3.76-1.47-.66-4a.6.6,0,0,0-1.08-.28l-2.56,3.12-4-.61a.59.59,0,0,0-.6.93l2.18,3.4-1.81,3.61a.59.59,0,0,0,.69.86l3.91-1,2.88,2.84a.6.6,0,0,0,1-.4l.24-4,3.59-1.86a.59.59,0,0,0-.06-1.1"/><path class="cls-2" d="M137.66,56.13l-33.1-27.64a1.46,1.46,0,0,0-2.3,1.62l11,29.92L69.53,41.61a1.45,1.45,0,0,0-1.64,2.32l27.46,30L50.12,79.6a1.46,1.46,0,0,0-.27,2.83l39.94,12.8L56.61,118.08a1.46,1.46,0,0,0,1.06,2.64l42.44-6.8L78.8,142.2a1.46,1.46,0,0,0,0,1.79,1.48,1.48,0,0,0,1.75.41L120,126.34a1.46,1.46,0,0,0-1.22-2.65L84.59,139.35l20-26.56a1.46,1.46,0,0,0-1.39-2.32l-39.64,6.35L93.89,96a1.49,1.49,0,0,0,.61-1.42,1.45,1.45,0,0,0-1-1.17L57,81.67l41.48-5.2a1.48,1.48,0,0,0,1.19-1A1.44,1.44,0,0,0,99.4,74L74.54,46.88,115.23,64a1.46,1.46,0,0,0,1.93-1.85L106.88,34.22l28.91,24.15a1.46,1.46,0,0,0,1.87-2.24"/></svg>